<svg width="20" height="20" viewBox="0 0 20 20" fill="none" xmlns="http://www.w3.org/2000/svg">
    <g id="icon left">
        <path id="Union" fill-rule="evenodd" clip-rule="evenodd"
            d="M10 1.875C8.73435 1.875 7.70833 2.90101 7.70833 4.16667V4.58333H8.95833V4.16667C8.95833 3.59137 9.4247 3.125 10 3.125H15.8333C16.4086 3.125 16.875 3.59137 16.875 4.16667V10.8333C16.875 11.4086 16.4086 11.875 15.8333 11.875H14.5833V13.125H15.8333C17.099 13.125 18.125 12.099 18.125 10.8333V4.16667C18.125 2.90101 17.099 1.875 15.8333 1.875H10ZM3.125 8.33333C3.125 7.75804 3.59137 7.29167 4.16667 7.29167H10.8333C11.4086 7.29167 11.875 7.75804 11.875 8.33333V15.8333C11.875 16.4086 11.4086 16.875 10.8333 16.875H4.16667C3.59137 16.875 3.125 16.4086 3.125 15.8333V8.33333ZM4.16667 6.04167C2.90101 6.04167 1.875 7.06768 1.875 8.33333V15.8333C1.875 17.099 2.90101 18.125 4.16667 18.125H10.8333C12.099 18.125 13.125 17.099 13.125 15.8333V8.33333C13.125 7.06768 12.099 6.04167 10.8333 6.04167H4.16667Z"
            fill="black" />
    </g>
</svg>